<?xml version="1.0" encoding="iso-8859-1"?>
<!-- Generator: Adobe Illustrator 17.1.0, SVG Export Plug-In . SVG Version: 6.00 Build 0)  -->
<!DOCTYPE svg PUBLIC "-//W3C//DTD SVG 1.1//EN" "http://www.w3.org/Graphics/SVG/1.1/DTD/svg11.dtd">
<svg version="1.1" id="Capa_1" xmlns="http://www.w3.org/2000/svg" xmlns:xlink="http://www.w3.org/1999/xlink" x="0px" y="0px"
	 viewBox="0 0 92.008 92.008" style="enable-background:new 0 0 92.008 92.008;" xml:space="preserve">
<g>
	<path d="M73.828,24.214H47h-0.176H30.673h-0.503h-1.747c-1.433,0-3.143,0.878-3.979,2.042L15.87,38.201
		c-0.876,1.222-0.925,3.167-0.11,4.431l6.737,10.447c0.786,1.219,2.474,2.139,3.924,2.139h0.748v1.121v1.503v30.166
		c0,2.206,1.794,4,4,4h2.352c2.206,0,4-1.794,4-4V60.842h3.631l2.752,7.602c0.337,0.931,0.37,2.576,0.068,3.521l-4.667,14.643
		c-0.273,0.857-0.157,1.722,0.319,2.374c0.477,0.652,1.266,1.026,2.165,1.026h3.953c1.643,0,3.321-1.227,3.821-2.792l4.667-14.643
		c0.433-1.356,0.392-3.469-0.093-4.809L50,56.333V32.464h23.828c1.654,0,3-1.346,3-3v-2.25
		C76.828,25.56,75.482,24.214,73.828,24.214z M27.169,47.545l-3.706-5.23c-0.393-0.554-0.397-1.566-0.009-2.123l3.714-5.33V47.545z"
		/>
	<path d="M38.585,21.672c5.975,0,10.835-4.861,10.835-10.836S44.56,0,38.585,0C32.61,0,27.749,4.861,27.749,10.836
		S32.61,21.672,38.585,21.672z"/>
</g>
<g>
</g>
<g>
</g>
<g>
</g>
<g>
</g>
<g>
</g>
<g>
</g>
<g>
</g>
<g>
</g>
<g>
</g>
<g>
</g>
<g>
</g>
<g>
</g>
<g>
</g>
<g>
</g>
<g>
</g>
</svg>
